<svg width="659" height="707" viewBox="0 0 659 707" fill="none" xmlns="http://www.w3.org/2000/svg">
  <style>
    .svg-fill { fill: #000; }
    @media (prefers-color-scheme: dark) {
      .svg-fill { fill: #fff; }
    }
  </style>
  
  <path d="M432.654 5.7937C436.062 2.10057 440.858 0 445.883 0H640.5C650.441 0 658.5 8.05887 658.5 18V222.599C658.5 232.54 650.441 240.599 640.5 240.599H355.71H223V240.599C220.328 240.599 218.935 237.419 220.747 235.455L432.654 5.7937Z" class="svg-fill"/>
  
  <path d="M0 13C0 5.8203 5.8203 0 13 0H202C211.941 0 220 8.05888 220 18V223C220 232.941 211.941 241 202 241H19C8.50659 241 0 232.493 0 222V13Z" class="svg-fill"/>
  
  <path d="M220 241H454C462.837 241 470 248.163 470 257V691C470 699.837 462.837 707 454 707H236C227.163 707 220 699.837 220 691V241Z" class="svg-fill"/>
  
  <rect x="220" y="236" width="250" height="425" rx="1" class="svg-fill"/>
</svg>
