<svg width="686" height="707" viewBox="0 0 686 707" fill="none" xmlns="http://www.w3.org/2000/svg">
<style>
    @media (prefers-color-scheme: dark) {
      path, rect {
        fill: white;
      }
    }
    @media (prefers-color-scheme: light) {
      path, rect {
        fill: black;
      }
    }
  </style>
<path d="M218 244H452C460.837 243 468 251.163 468 260V691C468 699.837 460.837 707 452 707H234C225.163 707 218 699.837 218 691V244Z" fill="black"/>
<path d="M403.553 7.77852C412.226 -1.34679 426.774 -1.34681 435.447 7.7785L621.91 203.969C635.228 217.981 625.295 242.5 605.964 242.5H233.036C213.705 242.5 203.772 217.981 217.09 203.969L403.553 7.77852Z" fill="black"/>
<path d="M406 14C406 6.8203 411.82 1 419 1H668C677.941 1 686 9.05888 686 19V224C686 233.941 677.941 242 668 242H425C414.507 242 406 233.493 406 223V14Z" fill="black"/> 
<path d="M0 18C0 8.05887 8.05887 0 18 0H218C227.941 0 236 8.05888 236 18V241H18C8.05887 241 0 232.941 0 223V18Z" fill="black"/>
<rect x="218" y="241" width="250" height="88" fill="black"/>
</svg>
